<svg width="85" height="85" viewBox="0 0 85 85" fill="none" xmlns="http://www.w3.org/2000/svg">
<path d="M51.7969 2.65625H46.4844H45.1562H23.9062H22.5781H17.2656C12.8709 2.65625 9.29688 6.23023 9.29688 10.625V74.375C9.29688 78.7698 12.8709 82.3438 17.2656 82.3438H51.7969C56.1916 82.3438 59.7656 78.7698 59.7656 74.375V66.4062H69.0625C72.7241 66.4062 75.7031 63.4273 75.7031 59.7656V57.1094C75.7031 56.3763 75.1081 55.7812 74.375 55.7812H67.7344V27.8906C67.7344 24.229 64.7554 21.25 61.0938 21.25H59.7656V10.625C59.7656 6.23023 56.1916 2.65625 51.7969 2.65625ZM41.4162 5.3125C41.2675 5.72953 41.1719 6.17313 41.1719 6.64062C41.1719 7.37242 40.5755 7.96875 39.8438 7.96875H29.2188C28.487 7.96875 27.8906 7.37242 27.8906 6.64062C27.8906 6.17313 27.795 5.72953 27.6462 5.3125H41.4162ZM57.1094 74.375C57.1094 77.3048 54.7267 79.6875 51.7969 79.6875H17.2656C14.3358 79.6875 11.9531 77.3048 11.9531 74.375V10.625C11.9531 7.69516 14.3358 5.3125 17.2656 5.3125H22.5781H23.9062C24.638 5.3125 25.2344 5.90883 25.2344 6.64062C25.2344 8.83734 27.022 10.625 29.2188 10.625H39.8438C42.0405 10.625 43.8281 8.83734 43.8281 6.64062C43.8281 5.90883 44.4245 5.3125 45.1562 5.3125H46.4844H51.7969C54.7267 5.3125 57.1094 7.69516 57.1094 10.625V21.25H34.5312C31.3252 21.25 28.6423 23.5357 28.0248 26.5625H21.25C20.5169 26.5625 19.9219 27.1575 19.9219 27.8906V51.7969C19.9219 52.53 20.5169 53.125 21.25 53.125H35.8594V50.4688H22.5781V29.2188H35.8594V26.5625H30.7913C31.3411 25.0205 32.802 23.9062 34.5312 23.9062C36.728 23.9062 38.5156 25.6939 38.5156 27.8906V61.0938C38.5156 64.0236 40.8983 66.4062 43.8281 66.4062H57.1094V74.375ZM73.0469 59.7656C73.0469 61.9623 71.2592 63.75 69.0625 63.75H48.4274C48.8816 62.9677 49.1406 62.0606 49.1406 61.0938V58.4375H73.0469V59.7656ZM65.0781 27.8906V55.7812H47.8125C47.0794 55.7812 46.4844 56.3763 46.4844 57.1094V61.0938C46.4844 62.5587 45.293 63.75 43.8281 63.75C42.3632 63.75 41.1719 62.5587 41.1719 61.0938V27.8906C41.1719 26.3898 40.6526 25.0192 39.8092 23.9062H61.0938C63.2905 23.9062 65.0781 25.6939 65.0781 27.8906Z" fill="#1E1C1C"/>
<path d="M17.2656 73.0469V11.9531C17.2656 11.2213 17.862 10.625 18.5938 10.625H21.25V7.96875H18.5938C16.397 7.96875 14.6094 9.75641 14.6094 11.9531V73.0469C14.6094 75.2436 16.397 77.0312 18.5938 77.0312H49.1406V74.375H18.5938C17.862 74.375 17.2656 73.7787 17.2656 73.0469Z" fill="#1E1C1C"/>
<path d="M33.2031 34.5312H31.875V33.2031H29.2188V34.5312H27.8906C27.1575 34.5312 26.5625 35.1263 26.5625 35.8594V39.8438C26.5625 40.5769 27.1575 41.1719 27.8906 41.1719H31.875V42.5H26.5625V43.8281C26.5625 44.5612 27.1575 45.1562 27.8906 45.1562H29.2188V46.4844H31.875V45.1562H33.2031C33.9363 45.1562 34.5312 44.5612 34.5312 43.8281V39.8438C34.5312 39.1106 33.9363 38.5156 33.2031 38.5156H29.2188V37.1875H34.5312V35.8594C34.5312 35.1263 33.9363 34.5312 33.2031 34.5312Z" fill="#E91919"/>
<path d="M21.25 55.7812H35.8594V58.4375H21.25V55.7812Z" fill="#1E1C1C"/>
<path d="M21.25 61.0938H35.8594V63.75H21.25V61.0938Z" fill="#1E1C1C"/>
<path d="M21.25 66.4062H35.8594V69.0625H21.25V66.4062Z" fill="#1E1C1C"/>
<path d="M53.125 51.7969C58.2516 51.7969 62.4219 47.6266 62.4219 42.5C62.4219 37.3734 58.2516 33.2031 53.125 33.2031C47.9984 33.2031 43.8281 37.3734 43.8281 42.5C43.8281 47.6266 47.9984 51.7969 53.125 51.7969ZM56.8809 43.8281H59.6315C59.5066 44.4377 59.2742 45.0009 58.9953 45.5374L56.8809 43.8281ZM59.6315 41.1719H54.4531V35.9935C57.0509 36.5234 59.1016 38.5741 59.6315 41.1719ZM51.7969 35.9935V42.5C51.7969 42.917 52.0014 43.2743 52.3029 43.5173L52.2909 43.5333L57.3245 47.6027C56.1757 48.5483 54.7254 49.1406 53.125 49.1406C49.4634 49.1406 46.4844 46.1616 46.4844 42.5C46.4844 39.2939 48.7701 36.6111 51.7969 35.9935Z" fill="#E91919"/>
<path d="M21.25 14.6094H53.125V17.2656H21.25V14.6094Z" fill="#1E1C1C"/>
</svg>
