<svg width="80" height="80" viewBox="0 0 80 80" fill="none" xmlns="http://www.w3.org/2000/svg">
<g clip-path="url(#clip0)">
<path d="M60.2111 24.3756C58.391 24.3152 56.9048 23.3746 56.9048 22.4042C56.9048 21.8884 57.3601 21.1304 57.9363 21.1304C58.5729 21.1304 59.0886 22.0251 60.2111 22.2223V19.765C58.8158 19.2346 57.1782 18.5822 57.1782 16.6412C57.1782 14.715 58.6034 13.7903 60.2111 13.5626V13.1378C60.2111 12.9254 60.454 12.7283 60.7878 12.7283C61.0759 12.7283 61.364 12.9254 61.364 13.1378V13.5168C62.3046 13.5474 64.0789 13.7903 64.0789 14.8364C64.0789 15.246 63.8054 16.0797 63.1383 16.0797C62.6378 16.0797 62.3497 15.5951 61.364 15.5188V17.7332C62.744 18.2489 64.3511 18.9612 64.3511 21.0089C64.3511 22.8894 63.1383 24.0271 61.364 24.3152V24.7546C61.364 24.967 61.0753 25.1642 60.7872 25.1642C60.454 25.1642 60.2111 24.967 60.2111 24.7546V24.3756ZM60.3624 17.3688V15.5646C59.6801 15.7007 59.392 16.0498 59.392 16.4136C59.392 16.8536 59.7863 17.1265 60.3624 17.3688ZM61.212 20.1746V22.207C61.7278 22.0856 62.1373 21.7975 62.1373 21.2518C62.1373 20.7507 61.7577 20.4327 61.212 20.1746Z" fill="#E91919"/>
<path d="M38.1462 40.6549C36.693 40.6061 35.5059 39.8553 35.5059 39.0808C35.5059 38.6688 35.8696 38.0634 36.3298 38.0634C36.8383 38.0634 37.2502 38.7775 38.1462 38.9349V36.9733C37.0323 36.5491 35.7244 36.0284 35.7244 34.4781C35.7244 32.9401 36.8627 32.2015 38.1462 32.0197V31.6809C38.1462 31.5112 38.3397 31.3538 38.6064 31.3538C38.8365 31.3538 39.0667 31.5112 39.0667 31.6809V31.9836C39.8174 32.0081 41.2346 32.2015 41.2346 33.0371C41.2346 33.3643 41.0161 34.0302 40.4833 34.0302C40.0835 34.0302 39.854 33.6432 39.0667 33.5822V35.3503C40.1689 35.7623 41.4525 36.3318 41.4525 37.9663C41.4525 39.4684 40.4839 40.3766 39.0667 40.6067V40.9576C39.0667 41.1273 38.8365 41.2848 38.6064 41.2848C38.3397 41.2848 38.1462 41.1273 38.1462 40.9576V40.6549ZM38.2671 35.0598V33.6188C37.722 33.7274 37.4919 34.0057 37.4919 34.2969C37.4919 34.6478 37.8069 34.8657 38.2671 35.0598ZM38.9452 37.3004V38.9227C39.3572 38.8263 39.6843 38.5962 39.6843 38.1598C39.6843 37.76 39.3816 37.5061 38.9452 37.3004Z" fill="#E91919"/>
<path d="M60.6427 31.8188C68.0798 31.8188 74.1302 25.7684 74.1302 18.3313C74.1302 10.8942 68.0798 4.84375 60.6427 4.84375C59.3677 4.84375 58.1055 5.02197 56.8909 5.37292C56.8835 5.37476 56.8756 5.3772 56.8683 5.37964L56.4099 5.52185C56.3873 5.52917 56.3654 5.5365 56.3434 5.54504L55.4199 5.89355C55.3992 5.90149 55.3784 5.91003 55.3583 5.91919L54.9908 6.08215C54.3994 6.34521 54.1327 7.03796 54.3958 7.62939C54.6588 8.22083 55.3522 8.48755 55.943 8.22449L56.2793 8.07495L57.1387 7.75085L57.5525 7.62207C58.5522 7.33398 59.5911 7.18872 60.6427 7.18872C66.7865 7.18872 71.7853 12.1869 71.7853 18.3313C71.7853 24.4757 66.7865 29.4745 60.6427 29.4745C54.4983 29.4745 49.4995 24.4757 49.4995 18.3313C49.4995 15.7166 50.423 13.175 52.1008 11.1749C52.5165 10.6793 52.4518 9.94019 51.9556 9.52393C51.46 9.10767 50.7208 9.17297 50.3046 9.66858C48.2733 12.0898 47.1552 15.1666 47.1552 18.3313C47.1552 25.7684 53.2056 31.8188 60.6427 31.8188Z" fill="#E91919"/>
<path d="M38.4918 46.8353C44.5612 46.8353 49.4995 41.897 49.4995 35.827C49.4995 29.7571 44.5612 24.8187 38.4918 24.8187C32.4219 24.8187 27.4835 29.7571 27.4835 35.827C27.4835 41.897 32.4219 46.8353 38.4918 46.8353ZM38.4918 27.1637C43.2684 27.1637 47.1552 31.0498 47.1552 35.827C47.1552 40.6042 43.269 44.491 38.4918 44.491C33.714 44.491 29.8279 40.6042 29.8279 35.827C29.8279 31.0498 33.714 27.1637 38.4918 27.1637Z" fill="#E91919"/>
<path d="M78.5931 50.8411C76.9244 48.8489 74.1809 48.1561 71.7664 49.1168L59.4965 53.9984C57.9492 54.6136 56.2219 54.679 54.6326 54.1827L35.7861 48.2733C34.66 47.9199 33.4906 47.7411 32.3102 47.7411H26.1816C25.8362 47.0868 25.1495 46.6388 24.3591 46.6388H20.1263V46.5912C20.1263 45.4327 19.184 44.491 18.0255 44.491H12.9321C12.2845 44.491 11.7603 45.0153 11.7603 45.6628C11.7603 46.3104 12.2845 46.8353 12.9321 46.8353H17.7814V70.8923H2.34436V46.8353H7.56592C8.2135 46.8353 8.7384 46.3104 8.7384 45.6628C8.7384 45.0153 8.2135 44.491 7.56592 44.491H2.10022C0.942383 44.491 0 45.4327 0 46.5912V71.1365C0 72.2949 0.942383 73.2367 2.10022 73.2367H18.0261C19.184 73.2367 20.1263 72.2949 20.1263 71.1365V71.0889H24.3591C25.1416 71.0889 25.8234 70.6506 26.1719 70.0073C32.077 73.3563 42.2083 74.6704 48.0591 75.1666C48.6249 75.2148 49.1925 75.2386 49.7595 75.2386C52.1881 75.2386 54.6106 74.8016 56.8524 73.952C66.3129 70.3662 74.3555 62.9669 78.3081 58.8751C80.4504 56.6577 80.5731 53.2037 78.5931 50.8411ZM24.0753 68.0096V68.7445H20.1257V48.9832H24.0753V68.0096ZM76.6217 57.2467C72.8058 61.1969 65.0549 68.3356 56.0217 71.7596C53.5815 72.6843 50.8978 73.0548 48.2574 72.8308C34.455 71.6595 28.595 68.8562 26.4197 67.4042V50.0854H32.3102C33.2526 50.0854 34.1858 50.2289 35.0848 50.5109L53.9227 56.4172L53.9624 56.4301C55.2698 56.8335 56.0785 58.1329 55.8441 59.4513L55.8167 59.6057C55.5756 60.9576 54.3152 61.9141 52.9492 61.7877L37.3657 60.3235C36.7242 60.2618 36.1499 60.7361 36.0895 61.3812C36.0284 62.0258 36.5021 62.597 37.1466 62.6575L52.7301 64.1217C52.8851 64.1364 53.0389 64.1437 53.1921 64.1437C55.5804 64.1437 57.6996 62.4072 58.125 60.0165L58.1525 59.8621C58.3423 58.7933 58.1708 57.7332 57.7209 56.8115C58.6224 56.7255 59.5135 56.5149 60.3632 56.1768L72.6331 51.2958C74.1052 50.7104 75.7782 51.1322 76.7957 52.3468C78.0035 53.7872 77.9285 55.8942 76.6217 57.2467Z" fill="#1E1C1C"/>
</g>
<defs>
<clipPath id="clip0">
<rect width="80" height="80" fill="white"/>
</clipPath>
</defs>
</svg>
