<svg width="80" height="80" viewBox="0 0 80 80" fill="none" xmlns="http://www.w3.org/2000/svg">
<path d="M38.5185 54.0741H35.5555V57.0371H38.5185V54.0741Z" fill="#1E1C1C"/>
<path d="M62.2222 36.2963C55.6767 36.2963 50.3704 41.6026 50.3704 48.1481C50.3704 54.6937 55.6767 60 62.2222 60C68.7678 60 74.0741 54.6937 74.0741 48.1481C74.0667 41.6055 68.7648 36.3037 62.2222 36.2963ZM62.2222 57.037C57.313 57.037 53.3333 53.0574 53.3333 48.1481C53.3333 43.2389 57.313 39.2592 62.2222 39.2592C67.1315 39.2592 71.1111 43.2389 71.1111 48.1481C71.1063 53.0553 67.1294 57.0322 62.2222 57.037Z" fill="#E91919"/>
<path d="M67.7141 44.7511L65.6193 42.6562L62.2222 46.0533L58.8252 42.6562L56.7304 44.7511L60.1274 48.1481L56.7304 51.5451L58.8252 53.64L62.2222 50.2429L65.6193 53.64L67.7141 51.5451L64.317 48.1481L67.7141 44.7511Z" fill="#E91919"/>
<path d="M74.0741 27.4074V6.66665C74.0741 3.39387 71.4209 0.740723 68.1481 0.740723H5.92593C2.65315 0.740723 0 3.39387 0 6.66665V57.037C0 60.3098 2.65315 62.9629 5.92593 62.9629H20.8252L15.5333 70.3704H7.40741C4.95278 70.3704 2.96296 72.3602 2.96296 74.8148C2.96296 77.2694 4.95278 79.2592 7.40741 79.2592H74.0741C77.3469 79.2592 80 76.6061 80 73.3333V33.3333C80 30.0605 77.3469 27.4074 74.0741 27.4074ZM5.92593 60C4.28944 60 2.96296 58.6735 2.96296 57.037V51.1111H44.4444V60H5.92593ZM24.4667 62.9629H44.4444V70.3704H19.1748L24.4667 62.9629ZM7.40741 76.2963C6.58926 76.2963 5.92593 75.6329 5.92593 74.8148C5.92593 73.9967 6.58926 73.3333 7.40741 73.3333H44.4444C44.4506 74.3766 44.735 75.3994 45.2681 76.2963H7.40741ZM44.4444 33.3333V48.1481H2.96296V6.66665C2.96296 5.03017 4.28944 3.70369 5.92593 3.70369H68.1481C69.7846 3.70369 71.1111 5.03017 71.1111 6.66665V27.4074H50.3704C47.0976 27.4074 44.4444 30.0605 44.4444 33.3333ZM77.037 73.3333C77.037 74.9698 75.7106 76.2963 74.0741 76.2963H50.3704C48.7339 76.2963 47.4074 74.9698 47.4074 73.3333V67.4074H77.037V73.3333ZM77.037 64.4444H47.4074V33.3333C47.4074 31.6968 48.7339 30.3704 50.3704 30.3704H74.0741C75.7106 30.3704 77.037 31.6968 77.037 33.3333V64.4444Z" fill="#1E1C1C"/>
<path d="M63.7037 70.3704H60.7407V73.3333H63.7037V70.3704Z" fill="#1E1C1C"/>
<path d="M19.2593 8.14819C12.7137 8.14819 7.40741 13.4545 7.40741 20C7.41482 26.5426 12.7167 31.8445 19.2593 31.8519C25.8048 31.8519 31.1111 26.5456 31.1111 20C31.1111 13.4545 25.8048 8.14819 19.2593 8.14819ZM19.2593 28.8889C14.35 28.8889 10.3704 24.9093 10.3704 20C10.3752 15.0928 14.352 11.116 19.2593 11.1112C24.1685 11.1112 28.1481 15.0908 28.1481 20C28.1481 24.9093 24.1685 28.8889 19.2593 28.8889Z" fill="#E91919"/>
<path d="M24.7511 16.603L22.6563 14.5082L19.2592 17.9052L15.8622 14.5082L13.7674 16.603L17.1644 20L13.7674 23.3971L15.8622 25.4919L19.2592 22.0948L22.6563 25.4919L24.7511 23.3971L21.3541 20L24.7511 16.603Z" fill="#E91919"/>
<path d="M40 40.7407H7.40741V43.7037H40V40.7407Z" fill="#1E1C1C"/>
<path d="M40 34.8148H16.2963V37.7778H40V34.8148Z" fill="#1E1C1C"/>
<path d="M66.6667 14.0741H34.0741V17.0371H66.6667V14.0741Z" fill="#1E1C1C"/>
<path d="M66.6667 20H34.0741V22.963H66.6667V20Z" fill="#1E1C1C"/>
<path d="M66.6667 8.14819H42.963V11.1112H66.6667V8.14819Z" fill="#1E1C1C"/>
</svg>
